<svg data-v-0dd9719b="" version="1.0" xmlns="http://www.w3.org/2000/svg" xmlns:xlink="http://www.w3.org/1999/xlink" width="100%" height="100%" viewBox="0 0 340.000000 250.000000" preserveAspectRatio="xMidYMid meet" color-interpolation-filters="sRGB" style="margin: auto;"> <rect data-v-0dd9719b="" x="0" y="0" width="100%" height="100%" fill="#ffffff" fill-opacity="1" class="background"></rect> <!----> <g data-v-0dd9719b="" fill="#0a6ac1" class="icon-text-wrapper icon-svg-group iconsvg" transform="translate(47.96177673339844,91.56859970092773)"><g class="iconsvg-imagesvg" transform="translate(0,0)"><g><rect fill="#0a6ac1" fill-opacity="0" stroke-width="2" x="0" y="0" width="60" height="66.86279753944905" class="image-rect"></rect> <svg x="0" y="0" width="60" height="66.86279753944905" filtersec="colorsb9107041633" class="image-svg-svg primary" style="overflow: visible;"><svg xmlns="http://www.w3.org/2000/svg" viewBox="14.6899995803833 11.00374984741211 880.3099975585938 980.9962768554688"><g fill="#0A6AC1"><path d="M283.57 678.65L79.89 796.25v75.29l203.68-117.59zM283.57 249.06L79.89 131.46v75.29l203.68 117.59zM514.28 457.55c15.89 9.17 25.38 25.61 25.38 43.96 0 18.34-9.49 34.78-25.38 43.94l-165.52 95.57v75.29l198.12-114.38c36.3-20.95 57.98-58.49 57.98-100.42 0-41.92-21.67-79.46-57.98-100.42L348.76 286.7v75.28l165.52 95.57zM348.76 286.7v-92.24l-65.19-37.64v92.24zM348.76 361.98l-65.19-37.64v354.31l65.19-37.64zM283.57 753.95v92.22l65.19-37.64v-92.22z"></path><path d="M283.57 846.17l-127.55 73.64c-15.88 9.17-34.86 9.17-50.74 0-15.89-9.18-25.38-25.61-25.38-43.96v-4.31L18.82 906.8c7.88 29 26.79 53.86 53.85 69.48C90.82 986.76 110.73 992 130.64 992c19.91 0 39.83-5.24 57.98-15.72l102.55-59.21c-4.86-12.91-7.6-26.77-7.6-41.21v-29.69zM14.69 169.1v664.79l65.2-37.64v-589.5zM348.76 194.46l455.66 263.07c15.9 9.19 25.38 25.62 25.38 43.97 0 18.34-9.49 34.77-25.38 43.95L348.76 808.53v67.32c0 2.55.61 4.94.96 7.41l487.3-281.34c36.3-20.95 57.98-58.49 57.98-100.41 0-41.92-21.67-79.47-57.98-100.42l-487.3-281.35c-.36 2.46-.96 4.85-.96 7.4v67.32zM79.89 127.14c0-18.35 9.48-34.78 25.38-43.95 7.95-4.59 16.66-6.88 25.38-6.88 8.71 0 17.42 2.29 25.37 6.88l127.55 73.64v-29.68c0-14.45 2.74-28.3 7.6-41.21L188.62 26.72c-36.3-20.95-79.66-20.96-115.96 0C45.6 42.35 26.7 67.2 18.82 96.2l61.07 35.26v-4.32z"></path></g></svg></svg> <!----></g></g> <g transform="translate(67.00000381469727,1.0544815063476562)"><g data-gra="path-name" fill-rule="" class="tp-name iconsvg-namesvg" transform="translate(0,0)"><g transform="scale(1)"><g><path d="M22.25-44.44L22.25-2.57Q22.25 0.51 18.4 0.51L18.4 0.51Q14.62 0.51 14.62-2.57L14.62-2.57 14.62-44.44 3.4-44.44Q1.09-44.44 0.96-47.71L0.96-47.71Q0.96-50.92 3.4-50.92L3.4-50.92 33.47-50.92Q35.91-50.92 35.78-47.71L35.78-47.71Q35.78-44.44 33.47-44.44L33.47-44.44 22.25-44.44ZM53.42-29.31L65.79-29.31Q67.46-29.31 69.26-28.6 71.05-27.89 72.72-26.74L72.72-26.74 72.65-26.74Q74.32-25.59 75.22-23.6 76.12-21.61 76.12-19.05L76.12-19.05 76.12-10.26Q76.12-5.07 72.65-2.5L72.65-2.5Q70.99-1.28 69.22-0.61 67.46 0.06 65.79 0.06L65.79 0.06 51.81 0.06Q50.15 0.06 48.38-0.61 46.62-1.28 44.95-2.5L44.95-2.5Q41.49-5.07 41.49-10.26L41.49-10.26 41.49-14.49Q41.49-17.51 45.27-17.51L45.27-17.51Q49.12-17.51 49.12-14.49L49.12-14.49 49.12-10.77Q49.12-9.11 50.08-7.76 51.04-6.41 53.42-6.41L53.42-6.41 64.19-6.41Q66.56-6.41 67.52-7.76 68.49-9.11 68.49-10.77L68.49-10.77 68.49-18.53Q68.49-20.14 67.52-21.51 66.56-22.89 64.19-22.89L64.19-22.89 51.81-22.89Q48.48-22.89 44.95-25.33L44.95-25.33Q41.49-28.02 41.49-33.09L41.49-33.09 41.49-40.72Q41.49-43.28 42.39-45.24 43.28-47.2 44.95-48.41L44.95-48.41 44.89-48.41Q46.56-49.5 48.35-50.21 50.15-50.92 51.81-50.92L51.81-50.92 65.79-50.92Q67.46-50.92 69.26-50.21 71.05-49.5 72.72-48.41L72.72-48.41 72.65-48.41Q74.32-47.2 75.22-45.24 76.12-43.28 76.12-40.72L76.12-40.72 76.12-36.94Q76.12-33.92 72.27-33.92L72.27-33.92Q68.49-33.92 68.49-36.94L68.49-36.94 68.49-40.14Q68.49-41.75 67.52-43.09 66.56-44.44 64.19-44.44L64.19-44.44 53.42-44.44Q51.04-44.44 50.08-43.09 49.12-41.75 49.12-40.14L49.12-40.14 49.12-33.6Q49.12-31.93 50.08-30.62 51.04-29.31 53.42-29.31L53.42-29.31ZM120.75-14.49L120.75-10.26Q120.75-5.07 117.29-2.5L117.29-2.5Q115.62-1.28 113.85-0.61 112.09 0.06 110.42 0.06L110.42 0.06 96.44 0.06Q94.78 0.06 93.01-0.61 91.25-1.28 89.58-2.5L89.58-2.5Q87.92-3.78 87.02-5.68 86.12-7.57 86.12-10.26L86.12-10.26 86.12-40.72Q86.12-43.28 87.02-45.24 87.92-47.2 89.58-48.41L89.58-48.41 89.52-48.41Q91.19-49.5 92.98-50.21 94.78-50.92 96.44-50.92L96.44-50.92 110.42-50.92Q112.09-50.92 113.89-50.21 115.68-49.5 117.35-48.41L117.35-48.41 117.29-48.41Q118.95-47.2 119.85-45.24 120.75-43.28 120.75-40.72L120.75-40.72 120.75-36.29Q120.75-33.22 116.9-33.22L116.9-33.22Q113.12-33.22 113.12-36.29L113.12-36.29 113.12-40.14Q113.12-41.75 112.16-43.09 111.19-44.44 108.82-44.44L108.82-44.44 98.05-44.44Q95.68-44.44 94.71-43.09 93.75-41.75 93.75-40.14L93.75-40.14 93.75-10.77Q93.75-9.11 94.71-7.76 95.68-6.41 98.05-6.41L98.05-6.41 108.82-6.41Q111.19-6.41 112.16-7.76 113.12-9.11 113.12-10.77L113.12-10.77 113.12-14.49Q113.12-17.51 116.9-17.51L116.9-17.51Q120.75-17.51 120.75-14.49L120.75-14.49ZM169.36-51.24L169.36-51.24Q171.41-51.24 173.84-50.27L173.84-50.27Q176.09-49.38 176.09-46.88L176.09-46.88 176.09-2.69Q176.09 0.38 172.3 0.38L172.3 0.38Q168.52 0.38 168.52-2.69L168.52-2.69 168.52-35.65 166.66-35.85 164.1-27.51 156.4-1.86Q155.7 0.38 152.94 0.32L152.94 0.32Q151.72 0.26 150.82-0.32 149.93-0.9 149.6-1.99L149.6-1.99 144.99-16.93Q143.58-21.35 142.17-25.94 140.76-30.52 139.09-36.1L139.09-36.1 137.23-35.85 137.23-2.69Q137.23 0.38 133.44 0.38L133.44 0.38Q129.66 0.38 129.66-2.69L129.66-2.69 129.66-46.88Q129.66-49.31 131.91-50.27L131.91-50.27Q134.28-51.24 136.46-51.17L136.46-51.17Q137.42-51.17 138.45-50.92 139.47-50.66 140.37-50.18 141.27-49.7 141.97-48.96 142.68-48.22 143.06-47.26L143.06-47.26 153.13-12.95Q154.22-16.74 155.44-21.16 156.66-25.59 157.94-30.14 159.22-34.69 160.47-39.15 161.72-43.61 162.81-47.45L162.81-47.45Q163.2-48.35 163.9-49.06 164.61-49.76 165.51-50.24 166.41-50.72 167.4-50.98 168.39-51.24 169.36-51.24Z" transform="translate(-0.9599999785423279, 51.2400016784668)"></path></g> <!----> <!----> <!----> <!----> <!----> <!----> <!----></g></g> <g data-gra="path-slogan" fill-rule="" class="tp-slogan iconsvg-slogansvg" fill="#0a6ac1" transform="translate(-1.94500732421875,57.75)"><!----> <!----> <g transform="scale(1, 1)"><g transform="scale(1)"><path d="M2.33-6.04L2.33 0L3.19 0L3.19-6.04L5.24-6.04L5.24-6.76L0.29-6.76L0.29-6.04ZM6.45-6.76L6.45 0L10.45 0L10.45-0.73L7.31-0.73L7.31-3.18L9.87-3.18L9.87-3.92L7.31-3.92L7.31-6.04L10.35-6.04L10.35-6.76ZM11.90-1.47L11.39-0.88C11.68-0.57 12.03-0.32 12.44-0.14C12.84 0.03 13.28 0.12 13.76 0.12C14.11 0.12 14.43 0.07 14.72-0.03C15.00-0.13 15.24-0.26 15.44-0.44C15.64-0.61 15.79-0.82 15.90-1.05C16.00-1.28 16.06-1.54 16.06-1.80C16.06-2.05 16.02-2.27 15.95-2.46C15.88-2.65 15.78-2.81 15.65-2.95C15.53-3.09 15.38-3.22 15.21-3.32C15.04-3.43 14.86-3.52 14.66-3.61L13.71-4.02C13.57-4.07 13.43-4.13 13.30-4.20C13.17-4.26 13.05-4.34 12.94-4.43C12.83-4.51 12.75-4.61 12.68-4.72C12.62-4.84 12.58-4.98 12.58-5.14C12.58-5.45 12.70-5.69 12.93-5.87C13.16-6.04 13.46-6.13 13.84-6.13C14.16-6.13 14.44-6.07 14.69-5.96C14.94-5.85 15.17-5.69 15.38-5.49L15.84-6.05C15.60-6.30 15.31-6.50 14.96-6.65C14.62-6.81 14.25-6.88 13.84-6.88C13.53-6.88 13.25-6.84 12.99-6.75C12.73-6.66 12.51-6.54 12.32-6.37C12.13-6.21 11.98-6.02 11.88-5.80C11.77-5.58 11.72-5.34 11.72-5.09C11.72-4.84 11.76-4.63 11.84-4.44C11.92-4.25 12.03-4.08 12.16-3.95C12.29-3.81 12.44-3.69 12.60-3.60C12.77-3.50 12.93-3.42 13.09-3.35L14.06-2.93C14.21-2.85 14.36-2.78 14.50-2.71C14.64-2.64 14.76-2.56 14.85-2.48C14.95-2.39 15.03-2.29 15.09-2.17C15.15-2.05 15.18-1.90 15.18-1.73C15.18-1.40 15.06-1.14 14.81-0.93C14.56-0.73 14.21-0.63 13.77-0.63C13.42-0.63 13.08-0.71 12.75-0.86C12.43-1.02 12.14-1.22 11.90-1.47ZM18.58-6.04L18.58 0L19.45 0L19.45-6.04L21.49-6.04L21.49-6.76L16.54-6.76L16.54-6.04ZM24.80-1.47L24.29-0.88C24.58-0.57 24.94-0.32 25.34-0.14C25.75 0.03 26.19 0.12 26.66 0.12C27.02 0.12 27.34 0.07 27.62-0.03C27.90-0.13 28.14-0.26 28.34-0.44C28.54-0.61 28.69-0.82 28.80-1.05C28.90-1.28 28.96-1.54 28.96-1.80C28.96-2.05 28.92-2.27 28.85-2.46C28.78-2.65 28.68-2.81 28.56-2.95C28.43-3.09 28.28-3.22 28.11-3.32C27.94-3.43 27.76-3.52 27.57-3.61L26.61-4.02C26.47-4.07 26.34-4.13 26.21-4.20C26.08-4.26 25.96-4.34 25.85-4.43C25.74-4.51 25.65-4.61 25.58-4.72C25.52-4.84 25.48-4.98 25.48-5.14C25.48-5.45 25.60-5.69 25.83-5.87C26.06-6.04 26.36-6.13 26.74-6.13C27.06-6.13 27.34-6.07 27.59-5.96C27.84-5.85 28.07-5.69 28.28-5.49L28.74-6.05C28.50-6.30 28.21-6.50 27.87-6.65C27.52-6.81 27.15-6.88 26.74-6.88C26.43-6.88 26.15-6.84 25.89-6.75C25.63-6.66 25.41-6.54 25.22-6.37C25.03-6.21 24.89-6.02 24.78-5.80C24.67-5.58 24.62-5.34 24.62-5.09C24.62-4.84 24.66-4.63 24.74-4.44C24.83-4.25 24.93-4.08 25.06-3.95C25.19-3.81 25.34-3.69 25.51-3.60C25.67-3.50 25.83-3.42 25.99-3.35L26.96-2.93C27.12-2.85 27.26-2.78 27.40-2.71C27.54-2.64 27.66-2.56 27.76-2.48C27.86-2.39 27.94-2.29 27.99-2.17C28.05-2.05 28.08-1.90 28.08-1.73C28.08-1.40 27.96-1.14 27.71-0.93C27.46-0.73 27.12-0.63 26.67-0.63C26.32-0.63 25.98-0.71 25.65-0.86C25.33-1.02 25.04-1.22 24.80-1.47ZM31.31-2.62L31.31 0L32.17 0L32.17-2.62L34.20-6.76L33.31-6.76L32.44-4.85C32.34-4.61 32.23-4.36 32.11-4.12C31.99-3.88 31.88-3.63 31.76-3.38L31.72-3.38C31.60-3.63 31.49-3.88 31.39-4.12C31.29-4.36 31.18-4.61 31.07-4.85L30.19-6.76L29.28-6.76ZM34.98-1.47L34.46-0.88C34.76-0.57 35.11-0.32 35.51-0.14C35.92 0.03 36.36 0.12 36.83 0.12C37.19 0.12 37.51 0.07 37.79-0.03C38.07-0.13 38.31-0.26 38.51-0.44C38.71-0.61 38.86-0.82 38.97-1.05C39.08-1.28 39.13-1.54 39.13-1.80C39.13-2.05 39.09-2.27 39.02-2.46C38.95-2.65 38.85-2.81 38.73-2.95C38.60-3.09 38.46-3.22 38.28-3.32C38.11-3.43 37.93-3.52 37.74-3.61L36.78-4.02C36.64-4.07 36.51-4.13 36.38-4.20C36.25-4.26 36.13-4.34 36.02-4.43C35.91-4.51 35.82-4.61 35.75-4.72C35.69-4.84 35.66-4.98 35.66-5.14C35.66-5.45 35.77-5.69 36.00-5.87C36.23-6.04 36.54-6.13 36.91-6.13C37.23-6.13 37.51-6.07 37.76-5.96C38.01-5.85 38.24-5.69 38.45-5.49L38.91-6.05C38.67-6.30 38.38-6.50 38.04-6.65C37.69-6.81 37.32-6.88 36.91-6.88C36.60-6.88 36.32-6.84 36.06-6.75C35.81-6.66 35.58-6.54 35.39-6.37C35.20-6.21 35.06-6.02 34.95-5.80C34.84-5.58 34.79-5.34 34.79-5.09C34.79-4.84 34.83-4.63 34.91-4.44C35.00-4.25 35.10-4.08 35.23-3.95C35.36-3.81 35.51-3.69 35.68-3.60C35.84-3.50 36.00-3.42 36.16-3.35L37.13-2.93C37.29-2.85 37.44-2.78 37.57-2.71C37.71-2.64 37.83-2.56 37.93-2.48C38.03-2.39 38.11-2.29 38.17-2.17C38.22-2.05 38.25-1.90 38.25-1.73C38.25-1.40 38.13-1.14 37.88-0.93C37.63-0.73 37.29-0.63 36.84-0.63C36.49-0.63 36.15-0.71 35.83-0.86C35.50-1.02 35.22-1.22 34.98-1.47ZM41.65-6.04L41.65 0L42.52 0L42.52-6.04L44.56-6.04L44.56-6.76L39.61-6.76L39.61-6.04ZM45.78-6.76L45.78 0L49.77 0L49.77-0.73L46.63-0.73L46.63-3.18L49.20-3.18L49.20-3.92L46.63-3.92L46.63-6.04L49.67-6.04L49.67-6.76ZM51.21-6.76L51.21 0L52.00 0L52.00-3.72C52.00-4.02 51.99-4.36 51.96-4.72C51.93-5.08 51.91-5.42 51.89-5.72L51.93-5.72L52.46-4.21L53.77-0.68L54.26-0.68L55.56-4.21L56.10-5.72L56.14-5.72C56.11-5.42 56.09-5.08 56.07-4.72C56.04-4.36 56.03-4.02 56.03-3.72L56.03 0L56.84 0L56.84-6.76L55.83-6.76L54.53-3.13L54.06-1.75L54.02-1.75L53.52-3.13L52.22-6.76ZM58.72-1.47L58.20-0.88C58.50-0.57 58.85-0.32 59.25-0.14C59.66 0.03 60.10 0.12 60.57 0.12C60.93 0.12 61.25 0.07 61.53-0.03C61.81-0.13 62.05-0.26 62.25-0.44C62.45-0.61 62.61-0.82 62.71-1.05C62.82-1.28 62.87-1.54 62.87-1.80C62.87-2.05 62.84-2.27 62.76-2.46C62.69-2.65 62.59-2.81 62.47-2.95C62.35-3.09 62.20-3.22 62.03-3.32C61.85-3.43 61.67-3.52 61.48-3.61L60.52-4.02C60.38-4.07 60.25-4.13 60.12-4.20C59.99-4.26 59.87-4.34 59.76-4.43C59.65-4.51 59.56-4.61 59.50-4.72C59.43-4.84 59.40-4.98 59.40-5.14C59.40-5.45 59.51-5.69 59.74-5.87C59.97-6.04 60.28-6.13 60.66-6.13C60.97-6.13 61.26-6.07 61.51-5.96C61.76-5.85 61.99-5.69 62.19-5.49L62.66-6.05C62.41-6.30 62.12-6.50 61.78-6.65C61.44-6.81 61.06-6.88 60.66-6.88C60.35-6.88 60.06-6.84 59.81-6.75C59.55-6.66 59.33-6.54 59.14-6.37C58.95-6.21 58.80-6.02 58.69-5.80C58.59-5.58 58.53-5.34 58.53-5.09C58.53-4.84 58.57-4.63 58.66-4.44C58.74-4.25 58.85-4.08 58.98-3.95C59.11-3.81 59.25-3.69 59.42-3.60C59.58-3.50 59.75-3.42 59.90-3.35L60.87-2.93C61.03-2.85 61.18-2.78 61.32-2.71C61.45-2.64 61.57-2.56 61.67-2.48C61.77-2.39 61.85-2.29 61.91-2.17C61.97-2.05 62.00-1.90 62.00-1.73C62.00-1.40 61.87-1.14 61.62-0.93C61.38-0.73 61.03-0.63 60.58-0.63C60.23-0.63 59.90-0.71 59.57-0.86C59.24-1.02 58.96-1.22 58.72-1.47ZM66.51-1.80C66.51-2.06 66.59-2.30 66.75-2.51C66.91-2.72 67.11-2.92 67.35-3.11C67.59-2.75 67.87-2.39 68.17-2.05C68.48-1.71 68.80-1.39 69.13-1.10C68.93-0.93 68.72-0.80 68.51-0.70C68.30-0.60 68.07-0.56 67.84-0.56C67.65-0.56 67.48-0.59 67.32-0.64C67.16-0.70 67.02-0.79 66.90-0.90C66.78-1.01 66.68-1.14 66.61-1.29C66.54-1.45 66.51-1.62 66.51-1.80ZM67.30-5.30C67.30-5.58 67.38-5.81 67.53-6.00C67.68-6.18 67.88-6.28 68.14-6.28C68.36-6.28 68.53-6.20 68.63-6.05C68.73-5.91 68.78-5.73 68.78-5.53C68.78-5.38 68.75-5.24 68.68-5.12C68.62-4.99 68.54-4.87 68.43-4.76C68.32-4.64 68.20-4.53 68.06-4.43C67.92-4.32 67.77-4.21 67.62-4.11C67.53-4.32 67.45-4.52 67.39-4.72C67.33-4.92 67.30-5.11 67.30-5.30ZM71.25 0.12L71.48-0.58C71.29-0.63 71.09-0.71 70.88-0.82C70.67-0.93 70.44-1.07 70.21-1.23C70.48-1.58 70.71-1.96 70.90-2.37C71.09-2.78 71.26-3.20 71.39-3.65L70.60-3.65C70.50-3.26 70.37-2.90 70.20-2.57C70.04-2.24 69.86-1.93 69.65-1.65C69.33-1.92 69.02-2.21 68.72-2.54C68.42-2.86 68.16-3.19 67.94-3.54C68.13-3.68 68.31-3.82 68.49-3.96C68.68-4.10 68.84-4.25 68.98-4.42C69.13-4.58 69.24-4.75 69.33-4.94C69.42-5.12 69.47-5.32 69.47-5.54C69.47-5.94 69.35-6.27 69.12-6.51C68.88-6.76 68.56-6.88 68.14-6.88C67.90-6.88 67.69-6.84 67.50-6.76C67.31-6.68 67.14-6.56 67.00-6.42C66.87-6.28 66.76-6.11 66.68-5.92C66.61-5.72 66.57-5.51 66.57-5.29C66.57-5.04 66.61-4.78 66.69-4.52C66.77-4.25 66.88-3.98 67.01-3.70C66.84-3.58 66.68-3.46 66.51-3.32C66.35-3.19 66.21-3.04 66.09-2.89C65.96-2.73 65.87-2.56 65.79-2.37C65.72-2.18 65.69-1.98 65.69-1.75C65.69-1.48 65.73-1.22 65.83-0.99C65.93-0.76 66.07-0.57 66.26-0.40C66.44-0.24 66.66-0.11 66.91-0.02C67.16 0.08 67.44 0.12 67.75 0.12C68.14 0.12 68.50 0.05 68.82-0.09C69.14-0.23 69.43-0.42 69.69-0.65C69.97-0.46 70.24-0.30 70.50-0.17C70.76-0.04 71.01 0.05 71.25 0.12ZM74.25-3.38C74.25-2.83 74.32-2.34 74.47-1.90C74.62-1.47 74.82-1.10 75.09-0.80C75.35-0.50 75.67-0.27 76.03-0.11C76.39 0.04 76.78 0.12 77.21 0.12C77.64 0.12 78.02 0.04 78.36-0.13C78.70-0.31 79.00-0.55 79.27-0.86L78.78-1.38C78.56-1.14 78.33-0.95 78.09-0.82C77.84-0.69 77.56-0.63 77.23-0.63C76.90-0.63 76.61-0.69 76.36-0.82C76.10-0.95 75.88-1.14 75.70-1.38C75.52-1.62 75.38-1.91 75.28-2.25C75.18-2.59 75.13-2.97 75.13-3.40C75.13-3.82 75.19-4.20 75.29-4.53C75.39-4.87 75.54-5.16 75.72-5.39C75.91-5.63 76.13-5.81 76.39-5.94C76.65-6.07 76.95-6.13 77.27-6.13C77.56-6.13 77.81-6.07 78.03-5.96C78.24-5.85 78.44-5.70 78.62-5.50L79.10-6.05C78.90-6.27 78.65-6.46 78.34-6.63C78.03-6.80 77.67-6.88 77.26-6.88C76.82-6.88 76.42-6.80 76.06-6.64C75.69-6.48 75.37-6.25 75.10-5.95C74.84-5.64 74.63-5.28 74.48-4.84C74.32-4.41 74.25-3.92 74.25-3.38ZM83.40-2.75L81.37-2.75L81.69-3.78C81.81-4.16 81.93-4.54 82.04-4.91C82.15-5.28 82.26-5.67 82.36-6.06L82.40-6.06C82.51-5.67 82.62-5.28 82.73-4.91C82.84-4.54 82.96-4.16 83.08-3.78ZM83.62-2.06L84.25 0L85.17 0L82.88-6.76L81.92-6.76L79.63 0L80.50 0L81.15-2.06ZM86.13-6.76L86.13 0L88.28 0C88.66 0 89.01-0.04 89.33-0.12C89.64-0.21 89.91-0.33 90.14-0.49C90.37-0.66 90.54-0.87 90.66-1.11C90.79-1.36 90.85-1.65 90.85-1.98C90.85-2.45 90.71-2.81 90.44-3.08C90.16-3.35 89.78-3.52 89.28-3.60L89.28-3.64C89.68-3.74 89.98-3.93 90.17-4.20C90.36-4.47 90.46-4.77 90.46-5.11C90.46-5.41 90.40-5.66 90.29-5.87C90.18-6.08 90.02-6.25 89.81-6.38C89.61-6.51 89.37-6.61 89.08-6.67C88.80-6.73 88.48-6.76 88.14-6.76ZM87.99-3.87L86.99-3.87L86.99-6.08L88.03-6.08C88.56-6.08 88.95-6.00 89.22-5.84C89.48-5.68 89.61-5.41 89.61-5.04C89.61-4.66 89.49-4.37 89.24-4.17C88.99-3.97 88.57-3.87 87.99-3.87ZM88.16-0.68L86.99-0.68L86.99-3.24L88.16-3.24C88.76-3.24 89.22-3.14 89.53-2.94C89.85-2.75 90.01-2.44 90.01-2.02C90.01-1.56 89.84-1.22 89.52-1.00C89.20-0.79 88.74-0.68 88.16-0.68ZM92.19-6.76L92.19 0L96.00 0L96.00-0.73L93.05-0.73L93.05-6.76ZM97.20-6.76L97.20 0L101.20 0L101.20-0.73L98.05-0.73L98.05-3.18L100.62-3.18L100.62-3.92L98.05-3.92L98.05-6.04L101.09-6.04L101.09-6.76ZM104.71-6.76L104.71 0L105.50 0L105.50-3.72C105.50-4.02 105.49-4.36 105.46-4.72C105.44-5.08 105.41-5.42 105.39-5.72L105.43-5.72L105.97-4.21L107.28-0.68L107.76-0.68L109.06-4.21L109.61-5.72L109.65-5.72C109.62-5.42 109.59-5.08 109.57-4.72C109.55-4.36 109.53-4.02 109.53-3.72L109.53 0L110.35 0L110.35-6.76L109.34-6.76L108.04-3.13L107.57-1.75L107.52-1.75L107.03-3.13L105.72-6.76ZM115.08-2.75L113.05-2.75L113.37-3.78C113.49-4.16 113.61-4.54 113.72-4.91C113.83-5.28 113.93-5.67 114.04-6.06L114.08-6.06C114.19-5.67 114.30-5.28 114.41-4.91C114.52-4.54 114.63-4.16 114.76-3.78ZM115.29-2.06L115.93 0L116.85 0L114.56-6.76L113.59-6.76L111.31 0L112.18 0L112.83-2.06ZM117.81-6.76L117.81 0L118.62 0L118.62-3.53C118.62-3.89 118.61-4.25 118.59-4.60C118.56-4.96 118.54-5.30 118.51-5.65L118.55-5.65L119.28-4.26L121.73 0L122.62 0L122.62-6.76L121.81-6.76L121.81-3.27C121.81-2.91 121.82-2.55 121.84-2.18C121.87-1.81 121.89-1.46 121.91-1.11L121.87-1.11L121.14-2.51L118.69-6.76ZM124.44-6.76L124.44-2.79C124.44-2.25 124.51-1.79 124.63-1.42C124.75-1.05 124.92-0.75 125.14-0.52C125.36-0.29 125.61-0.13 125.91-0.03C126.21 0.07 126.53 0.12 126.88 0.12C127.22 0.12 127.54 0.07 127.84-0.03C128.13-0.13 128.39-0.29 128.60-0.52C128.82-0.75 128.99-1.05 129.11-1.42C129.24-1.79 129.30-2.25 129.30-2.79L129.30-6.76L128.47-6.76L128.47-2.77C128.47-2.37 128.43-2.03 128.35-1.75C128.27-1.48 128.15-1.26 128.01-1.09C127.87-0.93 127.70-0.81 127.51-0.74C127.31-0.66 127.10-0.63 126.88-0.63C126.66-0.63 126.45-0.66 126.26-0.74C126.07-0.81 125.90-0.93 125.76-1.09C125.62-1.26 125.51-1.48 125.42-1.75C125.34-2.03 125.30-2.37 125.30-2.77L125.30-6.76ZM131.12-6.76L131.12 0L131.98 0L131.98-3.03L134.55-3.03L134.55-3.75L131.98-3.75L131.98-6.04L135.02-6.04L135.02-6.76ZM138.71-2.75L136.68-2.75L137.00-3.78C137.12-4.16 137.24-4.54 137.35-4.91C137.46-5.28 137.56-5.67 137.67-6.06L137.71-6.06C137.82-5.67 137.93-5.28 138.04-4.91C138.15-4.54 138.26-4.16 138.39-3.78ZM138.92-2.06L139.56 0L140.48 0L138.19-6.76L137.22-6.76L134.94 0L135.81 0L136.46-2.06ZM140.94-3.38C140.94-2.83 141.02-2.34 141.17-1.90C141.31-1.47 141.52-1.10 141.78-0.80C142.05-0.50 142.36-0.27 142.72-0.11C143.08 0.04 143.48 0.12 143.90 0.12C144.33 0.12 144.72 0.04 145.06-0.13C145.39-0.31 145.69-0.55 145.96-0.86L145.48-1.38C145.26-1.14 145.03-0.95 144.78-0.82C144.54-0.69 144.25-0.63 143.92-0.63C143.60-0.63 143.31-0.69 143.05-0.82C142.79-0.95 142.58-1.14 142.40-1.38C142.22-1.62 142.08-1.91 141.98-2.25C141.88-2.59 141.83-2.97 141.83-3.40C141.83-3.82 141.88-4.20 141.98-4.53C142.09-4.87 142.23-5.16 142.42-5.39C142.60-5.63 142.83-5.81 143.09-5.94C143.35-6.07 143.64-6.13 143.96-6.13C144.25-6.13 144.50-6.07 144.72-5.96C144.94-5.85 145.13-5.70 145.31-5.50L145.80-6.05C145.60-6.27 145.34-6.46 145.03-6.63C144.73-6.80 144.36-6.88 143.95-6.88C143.52-6.88 143.12-6.80 142.75-6.64C142.38-6.48 142.07-6.25 141.80-5.95C141.53-5.64 141.32-5.28 141.17-4.84C141.02-4.41 140.94-3.92 140.94-3.38ZM148.44-6.04L148.44 0L149.30 0L149.30-6.04L151.34-6.04L151.34-6.76L146.39-6.76L146.39-6.04ZM152.53-6.76L152.53-2.79C152.53-2.25 152.59-1.79 152.71-1.42C152.84-1.05 153.01-0.75 153.22-0.52C153.44-0.29 153.70-0.13 153.99-0.03C154.29 0.07 154.61 0.12 154.96 0.12C155.30 0.12 155.62 0.07 155.92-0.03C156.21-0.13 156.47-0.29 156.68-0.52C156.90-0.75 157.07-1.05 157.19-1.42C157.32-1.79 157.38-2.25 157.38-2.79L157.38-6.76L156.56-6.76L156.56-2.77C156.56-2.37 156.51-2.03 156.43-1.75C156.35-1.48 156.24-1.26 156.09-1.09C155.95-0.93 155.78-0.81 155.59-0.74C155.39-0.66 155.19-0.63 154.96-0.63C154.74-0.63 154.53-0.66 154.34-0.74C154.15-0.81 153.98-0.93 153.84-1.09C153.70-1.26 153.59-1.48 153.51-1.75C153.42-2.03 153.38-2.37 153.38-2.77L153.38-6.76ZM160.06-3.56L160.06-6.07L161.19-6.07C161.72-6.07 162.13-5.98 162.41-5.80C162.69-5.62 162.83-5.31 162.83-4.86C162.83-4.42 162.69-4.10 162.41-3.88C162.13-3.66 161.72-3.56 161.19-3.56ZM162.91 0L163.88 0L162.17-2.95C162.63-3.06 163.00-3.28 163.27-3.60C163.55-3.91 163.69-4.34 163.69-4.86C163.69-5.21 163.63-5.51 163.51-5.75C163.39-5.99 163.23-6.19 163.02-6.34C162.81-6.49 162.56-6.60 162.27-6.66C161.98-6.73 161.66-6.76 161.32-6.76L159.20-6.76L159.20 0L160.06 0L160.06-2.85L161.29-2.85ZM165.19-6.76L165.19 0L166.05 0L166.05-6.76ZM167.90-6.76L167.90 0L168.72 0L168.72-3.53C168.72-3.89 168.70-4.25 168.68-4.60C168.66-4.96 168.63-5.30 168.60-5.65L168.64-5.65L169.38-4.26L171.83 0L172.71 0L172.71-6.76L171.90-6.76L171.90-3.27C171.90-2.91 171.91-2.55 171.94-2.18C171.96-1.81 171.98-1.46 172.00-1.11L171.96-1.11L171.23-2.51L168.79-6.76ZM174.18-3.38C174.18-2.83 174.25-2.34 174.40-1.90C174.56-1.47 174.76-1.10 175.03-0.80C175.30-0.50 175.62-0.27 175.99-0.11C176.36 0.04 176.77 0.12 177.22 0.12C177.67 0.12 178.08 0.05 178.44-0.10C178.80-0.25 179.09-0.43 179.31-0.66L179.31-3.50L177.09-3.50L177.09-2.79L178.53-2.79L178.53-1.03C178.39-0.91 178.21-0.81 178.00-0.74C177.78-0.66 177.55-0.63 177.31-0.63C176.95-0.63 176.63-0.69 176.35-0.82C176.07-0.95 175.84-1.14 175.65-1.38C175.46-1.62 175.31-1.91 175.21-2.25C175.11-2.59 175.06-2.97 175.06-3.40C175.06-3.82 175.12-4.20 175.22-4.53C175.33-4.87 175.48-5.16 175.67-5.39C175.86-5.63 176.10-5.81 176.37-5.94C176.65-6.07 176.96-6.13 177.30-6.13C177.64-6.13 177.93-6.07 178.15-5.95C178.37-5.83 178.57-5.68 178.74-5.50L179.23-6.05C179.03-6.26 178.77-6.45 178.46-6.62C178.15-6.80 177.76-6.88 177.29-6.88C176.84-6.88 176.42-6.80 176.04-6.64C175.66-6.48 175.34-6.25 175.06-5.95C174.78-5.64 174.56-5.28 174.41-4.84C174.25-4.41 174.18-3.92 174.18-3.38Z" transform="translate(-0.2885441117535924, 6.883838094692848)"></path></g></g></g></g></g><defs v-gra="od"></defs></svg>